<svg width="31" height="28" viewBox="0 0 31 28" fill="none" xmlns="http://www.w3.org/2000/svg">
<g clip-path="url(#clip0_1552_20922)">
<path d="M16.8478 18.1795V21.6154C16.8478 22.071 16.6635 22.508 16.3355 22.8302C16.0075 23.1524 15.5627 23.3333 15.0988 23.3333H2.85608C2.39222 23.3333 1.94737 23.1524 1.61938 22.8302C1.29138 22.508 1.10712 22.071 1.10712 21.6154V2.71795C1.10712 2.26232 1.29138 1.82535 1.61938 1.50318C1.94737 1.181 2.39222 1 2.85608 1H15.0988C15.5627 1 16.0075 1.181 16.3355 1.50318C16.6635 1.82535 16.8478 2.26232 16.8478 2.71795V6.15385" stroke="white" stroke-width="3" stroke-linecap="round" stroke-linejoin="round"/>
<path d="M11.6009 12.1667H23.8436" stroke="white" stroke-width="3" stroke-linecap="round" stroke-linejoin="round"/>
<path d="M20.3457 8.73071L23.8436 12.1666L20.3457 15.6025" stroke="white" stroke-width="3" stroke-linecap="round" stroke-linejoin="round"/>
</g>
<defs>
<clipPath id="clip0_1552_20922">
<rect width="31" height="28" fill="white"/>
</clipPath>
</defs>
</svg>
